<svg xmlns="http://www.w3.org/2000/svg" viewBox="0 0 512 512">
  <defs>
    <linearGradient id="bg" x1="0" y1="0" x2="1" y2="1">
      <stop offset="0%" stop-color="#7c3aed"/>
      <stop offset="55%" stop-color="#ec4899"/>
      <stop offset="100%" stop-color="#f59e0b"/>
    </linearGradient>
  </defs>
  <rect x="8" y="8" width="496" height="496" rx="108" fill="url(#bg)"/>

  <g fill="#fff">
    <ellipse cx="256" cy="298" rx="126" ry="148" opacity="0.96"/>
    <ellipse cx="256" cy="208" rx="132" ry="108"/>
    <polygon points="146,146 200,64 220,158"/>
    <polygon points="366,146 312,64 292,158"/>
  </g>

  <g>
    <circle cx="206" cy="206" r="40" fill="#4b2e1f"/>
    <circle cx="306" cy="206" r="40" fill="#4b2e1f"/>
    <circle cx="194" cy="194" r="12" fill="#fff" opacity="0.95"/>
    <circle cx="318" cy="194" r="12" fill="#fff" opacity="0.95"/>
    <polygon points="256,224 232,264 280,264" fill="#f59e0b"/>
  </g>

  <g fill="none" stroke="#e5e7eb" stroke-width="7" stroke-linecap="round" opacity="0.9">
    <path d="M196 302c17 14 39 14 56 0"/>
    <path d="M196 338c17 14 39 14 56 0"/>
    <path d="M260 302c17 14 39 14 56 0"/>
    <path d="M260 338c17 14 39 14 56 0"/>
  </g>

  <g fill="#f59e0b">
    <rect x="212" y="410" width="24" height="32" rx="5"/>
    <rect x="276" y="410" width="24" height="32" rx="5"/>
  </g>
</svg>
